<?xml version="1.0" encoding="utf-8"?>
<!-- Generator: Adobe Illustrator 18.1.1, SVG Export Plug-In . SVG Version: 6.00 Build 0)  -->
<svg version="1.1" id="Layer_1" xmlns="http://www.w3.org/2000/svg" xmlns:xlink="http://www.w3.org/1999/xlink" x="0px" y="0px"
	 viewBox="0 0 32 32" enable-background="new 0 0 32 32" xml:space="preserve">
<line fill="none" stroke="#808080" stroke-width="2" x1="8" y1="22" x2="24" y2="22"/>
<path fill="#808080" d="M15.3,19.7L15.3,19.7C15.5,20,15.8,20,16,20c0.3,0,0.5-0.1,0.7-0.3l4.6-4.6c0.3-0.4,0.3-0.9,0-1.3l-0.2-0.2
	c-0.3-0.4-0.9-0.4-1.3,0L17,16.5l0-6.6C17,9.4,16.6,9,16.1,9l-0.3,0C15.4,9,15,9.4,15,9.9l0,6.6l-2.8-2.9c-0.3-0.4-0.9-0.4-1.3,0
	l-0.2,0.2c-0.3,0.4-0.3,0.9,0,1.3L15.3,19.7C15.2,19.7,15.2,19.7,15.3,19.7z"/>
</svg>
