<?xml version="1.0" encoding="utf-8"?>
<!-- Generator: Adobe Illustrator 18.1.1, SVG Export Plug-In . SVG Version: 6.00 Build 0)  -->
<svg version="1.1" id="Layer_1" xmlns="http://www.w3.org/2000/svg" xmlns:xlink="http://www.w3.org/1999/xlink" x="0px" y="0px"
	 viewBox="0 0 32 32" enable-background="new 0 0 32 32" xml:space="preserve">
<path fill="none" stroke="#808080" stroke-width="2" d="M7,23.3V27c0,0,0,1,1,1h16c0,0,1,0,1-1V9.4c0,0,0,0-0.8-0.7l-3.2-2.8
	c0,0-0.3-0.9-1.3-0.9L8,5c0,0-1,0-1,1v3.4"/>
<line fill="none" stroke="#808080" stroke-width="3" x1="5" y1="16.5" x2="15" y2="16.5"/>
<path fill="#808080" d="M12.1,11.2c0,0-0.7-0.7-0.7,0.3l0,9.9c0,0,0,1,0.7,0.3l4.6-4.6c0,0,0.7-0.7,0-1.4L12.1,11.2z"/>
</svg>
