<?xml version="1.0" encoding="utf-8"?>
<!-- Generator: Adobe Illustrator 18.1.1, SVG Export Plug-In . SVG Version: 6.00 Build 0)  -->
<svg version="1.1" id="Layer_1" xmlns="http://www.w3.org/2000/svg" xmlns:xlink="http://www.w3.org/1999/xlink" x="0px" y="0px"
	 viewBox="0 0 32 32" enable-background="new 0 0 32 32" xml:space="preserve">
<path fill="#808080" d="M18.5,17.5L18.5,17.5c0.3-0.3,0.4-0.7,0.4-1c0-0.3-0.1-0.7-0.3-0.9l-6.2-6.1c-0.5-0.5-1.2-0.5-1.7,0
	l-0.2,0.2c-0.5,0.5-0.5,1.2,0,1.7l3.9,3.8l-8.8,0c-0.7,0-1.2,0.5-1.2,1.2l0,0.3c0,0.7,0.5,1.2,1.2,1.2l8.8,0l-3.8,3.8
	c-0.5,0.5-0.5,1.2,0,1.7l0.2,0.2c0.5,0.5,1.2,0.5,1.7,0L18.5,17.5C18.5,17.5,18.5,17.5,18.5,17.5z"/>
<path fill="none" stroke="#808080" stroke-width="2" stroke-miterlimit="10" d="M11,1h13.9C26,1,27,1.9,27,3v26c0,1.1-1,2-2.1,2H11"
	/>
</svg>
