<?xml version="1.0" encoding="utf-8"?>
<!-- Generator: Adobe Illustrator 19.1.0, SVG Export Plug-In . SVG Version: 6.00 Build 0)  -->
<svg version="1.1" xmlns="http://www.w3.org/2000/svg" xmlns:xlink="http://www.w3.org/1999/xlink" x="0px" y="0px"
	 viewBox="0 0 114 114" enable-background="new 0 0 114 114" xml:space="preserve">
<g id="Layer_2">
	<circle fill="#F05A24" cx="57" cy="57" r="57"/>
</g>
<g id="Layer_1">
	<g>
		<rect x="111" y="46" fill="#F05A24" width="10" height="25"/>
		<path fill="#FF921E" stroke="#FFFFFF" stroke-width="2" stroke-miterlimit="10" d="M58.9,102C34.5,100,17,84.1,17,84.1V40.9
			C33,31.8,47,29,58.8,29H59c11.8,0,24,2.8,38,11.9v43.2c0,0-13.6,15.9-38,17.9H58.9z"/>
		<rect x="-7" y="46" fill="#F05A24" width="10" height="25"/>
		
			<polyline fill="none" stroke="#FFFFFF" stroke-width="2" stroke-linecap="square" stroke-linejoin="bevel" stroke-miterlimit="10" points="
			30,48.1 47.4,55.9 30,63.4 		"/>
		<line fill="none" stroke="#FFFFFF" stroke-width="2" stroke-miterlimit="10" x1="47" y1="82" x2="69" y2="82"/>
		<path fill="none" stroke="#FFFFFF" stroke-width="2" stroke-miterlimit="10" d="M77.1,10.6c0,0,8.9,3.2,14.1,9.8"/>
	</g>
</g>
<g id="Layer_3">
</g>
</svg>
