<?xml version="1.0" encoding="utf-8"?>
<!-- Generator: Adobe Illustrator 18.1.1, SVG Export Plug-In . SVG Version: 6.00 Build 0)  -->
<svg version="1.1" xmlns="http://www.w3.org/2000/svg" xmlns:xlink="http://www.w3.org/1999/xlink" x="0px" y="0px"
	 viewBox="0 0 50 49.9" enable-background="new 0 0 50 49.9" xml:space="preserve">
<g id="background">
</g>
<g id="starry">
</g>
<g id="Rays">
</g>
<g id="clouds">
</g>
<g id="planet">
</g>
<g id="craters">
</g>
<g id="Shuttle">
</g>
<g id="objects">
</g>
<g id="astronaut">
</g>
<g id="space_station">
</g>
<g id="Light_Layer">
</g>
<g id="Texture">
</g>
<g id="Crop">
</g>
<g id="Logo">
</g>
<g id="icons_back">
	<circle fill="none" stroke="#FF8F6B" stroke-width="2" stroke-miterlimit="10" cx="25" cy="25" r="23"/>
</g>
<g id="Icons">
	<polyline fill="none" stroke="#EC5A24" stroke-width="1.2439" stroke-miterlimit="10" points="23.1,20.9 18.7,21.1 12.8,26.9 
		18.1,27.4 23,21 	"/>
	<polyline fill="none" stroke="#EC5A24" stroke-width="1.2439" stroke-miterlimit="10" points="31,28.8 30.8,33.2 24.9,39.1 
		24.5,33.8 30.9,28.9 	"/>
	<path fill="none" stroke="#EC5A24" stroke-width="1.2439" stroke-miterlimit="10" d="M17.9,28.5c0,0,3-6,8.4-10.5
		c5.5-4.7,10.2-2.7,10.2-2.7s2.4,4-2.6,10.1c-5.1,6.4-10.7,8.5-10.7,8.5L17.9,28.5z"/>
	
		<rect x="18.9" y="28.8" transform="matrix(-0.7071 0.7071 -0.7071 -0.7071 56.515 40.6347)" fill="none" stroke="#EC5A24" stroke-width="1.2439" stroke-miterlimit="10" width="1.9" height="6.4"/>
	<circle fill="none" stroke="#EC5A24" stroke-width="1.2439" stroke-miterlimit="10" cx="31.7" cy="20.2" r="2"/>
	<polygon fill="#FF8F6B" points="19.3,35.2 16.8,32.7 12.1,37.4 	"/>
</g>
</svg>
