<?xml version="1.0" encoding="utf-8"?>
<!-- Generator: Adobe Illustrator 18.1.1, SVG Export Plug-In . SVG Version: 6.00 Build 0)  -->
<svg version="1.1" xmlns="http://www.w3.org/2000/svg" xmlns:xlink="http://www.w3.org/1999/xlink" x="0px" y="0px"
	 viewBox="0 0 32 32" enable-background="new 0 0 32 32" xml:space="preserve">
<g id="Layer_2" display="none">
	<rect display="inline" width="32" height="32"/>
</g>
<g id="Layer_1">
	<path fill="none" stroke="#FFFFFF" stroke-width="2" d="M7,23v4c0,0,0,1,1,1l16,0c0,0,1,0,1-1V10.4c0,0,0-1-0.8-1.7l-3.2-3
		c0,0-0.8-0.7-1.8-0.7L8,5c0,0-1,0-1,1v4"/>
	<line fill="none" stroke="#FFFFFF" stroke-width="4" x1="6" y1="17" x2="15" y2="17"/>
	<path fill="#FFFFFF" d="M11.6,12.2c0,0-0.6-0.6-0.6,0.3l0,9c0,0,0,0.9,0.6,0.3l4.1-4.1c0,0,0.6-0.6,0-1.3L11.6,12.2z"/>
	<rect x="6" y="4.3" fill="none" width="20.5" height="24.7"/>
</g>
</svg>
