<?xml version="1.0" encoding="utf-8"?>
<!-- Generator: Adobe Illustrator 18.1.1, SVG Export Plug-In . SVG Version: 6.00 Build 0)  -->
<svg version="1.1" xmlns="http://www.w3.org/2000/svg" xmlns:xlink="http://www.w3.org/1999/xlink" x="0px" y="0px"
	 viewBox="0 0 94 94" enable-background="new 0 0 94 94" xml:space="preserve">
<g id="Layer_2">
</g>
<g id="Layer_1">
	<circle fill="#F05A24" cx="47" cy="47" r="46"/>
	
		<path fill="#FF921E" stroke="#FFFFFF" stroke-width="2" stroke-linecap="round" stroke-linejoin="round" stroke-miterlimit="10" d="
		M39.9,64.8L26.8,51.4c0,0,28.9-29.3,31.3-31.8c2.4-2.5,8.7-3.2,12.5,0.5c3.8,3.8,3.1,10.1,0.7,12.5C68.9,35.1,39.9,64.8,39.9,64.8z
		"/>
	
		<path fill="#FF921E" stroke="#FFFFFF" stroke-width="2" stroke-linecap="round" stroke-linejoin="round" stroke-miterlimit="10" d="
		M46.6,71.4l-11.1-11c0,0,28.8-29.4,31.3-31.8c3.3-3,8-3.2,11.7-0.3c0.3,0.2,6.4,5.5-1,12.8C75,43.6,46.6,71.4,46.6,71.4z"/>
	
		<polygon fill="#F05A24" stroke="#FFFFFF" stroke-width="2" stroke-linecap="round" stroke-linejoin="round" stroke-miterlimit="10" points="
		35.4,60.4 12,66.5 26.8,51.4 	"/>
	
		<polygon fill="#F05A24" stroke="#FFFFFF" stroke-width="2" stroke-linecap="round" stroke-linejoin="round" stroke-miterlimit="10" points="
		46.6,71.4 18,77.3 35.4,60.4 	"/>
	<line fill="none" stroke="#FFFFFF" stroke-width="2" stroke-miterlimit="10" x1="56" y1="21.8" x2="46.5" y2="13.3"/>
	
		<circle fill="#FF921E" stroke="#FFFFFF" stroke-width="2" stroke-linecap="round" stroke-linejoin="round" stroke-miterlimit="10" cx="47" cy="13.3" r="3.6"/>
	
		<path fill="#FF921E" stroke="#FFFFFF" stroke-width="2" stroke-linecap="round" stroke-linejoin="round" stroke-miterlimit="10" d="
		M75.9,33.4c0,0,0.9,2.4-2.5,5.4"/>
</g>
<g id="Layer_3">
</g>
</svg>
