<?xml version="1.0" encoding="utf-8"?>
<!-- Generator: Adobe Illustrator 18.1.1, SVG Export Plug-In . SVG Version: 6.00 Build 0)  -->
<svg version="1.0" id="Layer_1" xmlns="http://www.w3.org/2000/svg" xmlns:xlink="http://www.w3.org/1999/xlink" x="0px" y="0px"
	 viewBox="0 0 35 35" enable-background="new 0 0 35 35" xml:space="preserve">
<g>
	<path fill="#B3B3B3" d="M17.5,3C25.5,3,32,9.5,32,17.5S25.5,32,17.5,32S3,25.5,3,17.5S9.5,3,17.5,3 M17.5,1C8.4,1,1,8.4,1,17.5
		S8.4,34,17.5,34S34,26.6,34,17.5S26.6,1,17.5,1L17.5,1z"/>
</g>
<polyline fill="none" stroke="#666666" stroke-width="2" points="11,13 6.5,17.5 11,22 "/>
<polyline fill="none" stroke="#666666" stroke-width="2" points="23.9,13.1 28.4,17.6 23.9,22.1 "/>
<line fill="none" stroke="#666666" stroke-width="2" x1="20" y1="12" x2="15" y2="23"/>
</svg>
