<?xml version="1.0" encoding="utf-8"?>
<!-- Generator: Adobe Illustrator 18.1.1, SVG Export Plug-In . SVG Version: 6.00 Build 0)  -->
<svg version="1.1" baseProfile="tiny" id="Layer_1" xmlns="http://www.w3.org/2000/svg" xmlns:xlink="http://www.w3.org/1999/xlink"
	 x="0px" y="0px" viewBox="0 0 30 30" xml:space="preserve">
<path fill="#FFFFFF" d="M15,16c1.7,0,3,1.3,3,3s-1.3,3-3,3s-3-1.3-3-3S13.3,16,15,16 M15,14c-2.8,0-5,2.2-5,5s2.2,5,5,5s5-2.2,5-5
	S17.8,14,15,14L15,14z"/>
<path fill="#FFFFFF" d="M26,3c0.6,0,1,0.4,1,1v22c0,0.6-0.4,1-1,1H4c-0.6,0-1-0.4-1-1V4c0-0.6,0.4-1,1-1H26 M26,1H4C2.3,1,1,2.3,1,4
	v22c0,1.7,1.3,3,3,3h22c1.7,0,3-1.3,3-3V4C29,2.3,27.7,1,26,1L26,1z"/>
<path fill="none" stroke="#FFFFFF" stroke-width="2" stroke-miterlimit="10" d="M22,2v6c0,0.5-0.4,1-1,1H9C8.4,9,8,8.6,8,8V2"/>
</svg>
