<?xml version="1.0" encoding="utf-8"?>
<!-- Generator: Adobe Illustrator 18.1.1, SVG Export Plug-In . SVG Version: 6.00 Build 0)  -->
<svg version="1.1" id="Layer_1" xmlns="http://www.w3.org/2000/svg" xmlns:xlink="http://www.w3.org/1999/xlink" x="0px" y="0px"
	 viewBox="0 0 35 35" enable-background="new 0 0 35 35" xml:space="preserve">
<g>
	<g>
		<path fill="#996B6D" d="M17.5,3C25.5,3,32,9.5,32,17.5S25.5,32,17.5,32S3,25.5,3,17.5S9.5,3,17.5,3 M17.5,1C8.4,1,1,8.4,1,17.5
			S8.4,34,17.5,34S34,26.6,34,17.5S26.6,1,17.5,1L17.5,1z"/>
	</g>
</g>
<path fill="none" stroke="#D83D2B" stroke-width="2" stroke-miterlimit="10" d="M12.2,24.1c3.6,3,9,2.4,12-1.3c3-3.6,2.4-9-1.3-12
	c-3.6-3-9-2.4-12,1.3"/>
<polyline fill="none" stroke="#D83D2B" stroke-width="2" stroke-miterlimit="10" points="10.2,7.5 10.9,13.9 17.3,13.2 "/>
</svg>
