<?xml version="1.0" encoding="utf-8"?>
<!-- Generator: Adobe Illustrator 18.1.1, SVG Export Plug-In . SVG Version: 6.00 Build 0)  -->
<svg version="1.1" id="Layer_1" xmlns="http://www.w3.org/2000/svg" xmlns:xlink="http://www.w3.org/1999/xlink" x="0px" y="0px"
	 viewBox="0 0 28 28" enable-background="new 0 0 28 28" xml:space="preserve">
<path fill="#F47024" d="M14,27c7.2,0,13-5.8,13-13S21.2,1,14,1S1,6.8,1,14S6.8,27,14,27"/>
<g>
	<path fill="#FFFFFF" d="M20.4,10.2c0,0.6-0.2,1.1-0.6,1.4c-0.4,0.4-0.8,0.5-1.4,0.5c-0.3,0-0.7,0-1-0.1c-0.3-0.1-0.6-0.2-0.8-0.2
		c-0.1,0.1-0.3,0.2-0.5,0.5c-0.2,0.3-0.5,0.6-0.7,0.9c0.2,1,0.4,1.8,0.6,2.2c0.2,0.4,0.3,0.9,0.4,1.3c0.1,0.4,0.3,0.6,0.5,0.8
		c0.2,0.2,0.6,0.3,1.1,0.3c0.2,0,0.4,0,0.7-0.1c0.3-0.1,0.5-0.1,0.7-0.2l-0.2,0.9c-0.7,0.3-1.3,0.5-1.8,0.6c-0.5,0.1-1,0.2-1.4,0.2
		c-0.3,0-0.6,0-0.9-0.1c-0.3-0.1-0.5-0.2-0.8-0.3c-0.3-0.2-0.5-0.3-0.6-0.6c-0.2-0.2-0.3-0.5-0.4-0.9c-0.1-0.3-0.2-0.5-0.2-0.9
		C13,16.2,13,16,12.9,15.7c-0.2,0.3-0.3,0.5-0.4,0.7s-0.2,0.3-0.4,0.6c-0.5,0.8-1,1.4-1.4,1.8c-0.4,0.4-0.9,0.5-1.4,0.5
		c-0.4,0-0.8-0.1-1.1-0.4s-0.4-0.6-0.4-1.1c0-0.6,0.2-1.1,0.6-1.4c0.4-0.4,0.8-0.5,1.4-0.5c0.3,0,0.6,0,0.9,0.1
		c0.3,0.1,0.6,0.2,0.9,0.3c0.1-0.1,0.3-0.2,0.5-0.5c0.2-0.2,0.4-0.5,0.7-0.9c-0.2-0.9-0.4-1.6-0.6-2.1c-0.1-0.5-0.3-0.9-0.4-1.4
		c-0.1-0.4-0.3-0.6-0.5-0.8c-0.2-0.2-0.6-0.3-1-0.3c-0.2,0-0.4,0-0.7,0.1c-0.3,0.1-0.5,0.1-0.6,0.2L9,9.6c0.6-0.3,1.2-0.5,1.7-0.6
		s1-0.2,1.4-0.2c0.3,0,0.6,0,0.9,0.1c0.2,0,0.5,0.2,0.8,0.3c0.2,0.2,0.5,0.3,0.6,0.6c0.2,0.2,0.3,0.5,0.4,0.9
		c0.1,0.3,0.2,0.6,0.2,0.9s0.1,0.5,0.2,0.8c0.1-0.2,0.3-0.4,0.4-0.7c0.2-0.2,0.3-0.4,0.4-0.6c0.5-0.8,1-1.4,1.4-1.8
		c0.4-0.4,0.9-0.5,1.4-0.5c0.4,0,0.8,0.1,1.1,0.4C20.3,9.3,20.4,9.7,20.4,10.2z"/>
</g>
</svg>
