<?xml version="1.0" encoding="utf-8"?>
<!-- Generator: Adobe Illustrator 19.1.0, SVG Export Plug-In . SVG Version: 6.00 Build 0)  -->
<svg version="1.1" id="Layer_1" xmlns="http://www.w3.org/2000/svg" xmlns:xlink="http://www.w3.org/1999/xlink" x="0px" y="0px"
	 viewBox="0 0 30 30" enable-background="new 0 0 30 30" xml:space="preserve">
<g>
	<defs>
		<rect id="SVGID_1_" x="1" y="1" width="28" height="28"/>
	</defs>
	<clipPath id="SVGID_2_">
		<use xlink:href="#SVGID_1_"  overflow="visible"/>
	</clipPath>
	<path clip-path="url(#SVGID_2_)" fill="#FFFFFF" d="M15,28.5c7.4,0,13.5-6.1,13.5-13.5S22.4,1.5,15,1.5S1.5,7.6,1.5,15
		S7.6,28.5,15,28.5"/>
	<path clip-path="url(#SVGID_2_)" fill="none" stroke="#CBCBCB" d="M15,28.5c7.4,0,13.5-6.1,13.5-13.5S22.4,1.5,15,1.5
		S1.5,7.6,1.5,15S7.6,28.5,15,28.5z"/>
	<path clip-path="url(#SVGID_2_)" fill="#FFFFFF" d="M23.5,21.9c-0.7-3.2-4.2-5.5-8.5-5.5s-7.8,2.3-8.5,5.5l-0.1,0.2l0.2,0.2
		c2.1,2.5,5.2,4,8.4,4s6.2-1.4,8.4-4l0.2-0.2L23.5,21.9z"/>
	<path clip-path="url(#SVGID_2_)" fill="none" stroke="#CBCBCB" d="M23.5,21.9c-0.7-3.2-4.2-5.5-8.5-5.5s-7.8,2.3-8.5,5.5l-0.1,0.2
		l0.2,0.2c2.1,2.5,5.2,4,8.4,4s6.2-1.4,8.4-4l0.2-0.2L23.5,21.9z"/>
	<path clip-path="url(#SVGID_2_)" fill="#FFFFFF" d="M15,18.3c2.6,0,4.7-2.1,4.7-4.7c0-2.6-2.1-4.7-4.7-4.7s-4.7,2.1-4.7,4.7
		C10.3,16.2,12.4,18.3,15,18.3"/>
	<path clip-path="url(#SVGID_2_)" fill="none" stroke="#CBCBCB" d="M15,18.3c2.6,0,4.7-2.1,4.7-4.7c0-2.6-2.1-4.7-4.7-4.7
		s-4.7,2.1-4.7,4.7C10.3,16.2,12.4,18.3,15,18.3z"/>
</g>
</svg>
