<?xml version="1.0" encoding="utf-8"?>
<!-- Generator: Adobe Illustrator 18.1.1, SVG Export Plug-In . SVG Version: 6.00 Build 0)  -->
<svg version="1.1" id="Layer_1" xmlns="http://www.w3.org/2000/svg" xmlns:xlink="http://www.w3.org/1999/xlink" x="0px" y="0px"
	 viewBox="0 0 28 28" enable-background="new 0 0 28 28" xml:space="preserve">
<g>
	<circle fill="#808080" cx="14" cy="14" r="13"/>
</g>
<path fill="#FFFFFF" d="M8.3,14.9L8.3,14.9C8.1,14.6,8,14.3,8,14c0-0.3,0.1-0.6,0.3-0.8l5.1-5c0.4-0.4,1-0.4,1.4,0L15,8.5
	c0.4,0.4,0.4,1,0,1.4L11.8,13l7.3,0c0.5,0,1,0.4,1,1l0,0.3c0,0.5-0.4,1-1,1l-7.2,0l3.1,3.1c0.4,0.4,0.4,1,0,1.4l-0.2,0.2
	c-0.4,0.4-1,0.4-1.4,0L8.3,14.9C8.3,14.9,8.3,14.9,8.3,14.9z"/>
</svg>
