<?xml version="1.0" encoding="utf-8"?>
<!-- Generator: Adobe Illustrator 18.1.1, SVG Export Plug-In . SVG Version: 6.00 Build 0)  -->
<svg version="1.1" id="Layer_1" xmlns="http://www.w3.org/2000/svg" xmlns:xlink="http://www.w3.org/1999/xlink" x="0px" y="0px"
	 viewBox="0 0 36 36" enable-background="new 0 0 36 36" xml:space="preserve">
<g>
	<path fill="#FFFFFF" d="M18,34C9.2,34,2,26.8,2,18S9.2,2,18,2s16,7.2,16,16S26.8,34,18,34z"/>
	<path fill="#B5D5FF" d="M18,3c8.3,0,15,6.7,15,15s-6.7,15-15,15S3,26.3,3,18S9.7,3,18,3 M18,1C8.6,1,1,8.6,1,18s7.6,17,17,17
		c9.4,0,17-7.6,17-17S27.4,1,18,1L18,1z"/>
</g>
<path fill="#FFFFFF" stroke="#53A2F2" stroke-width="2" stroke-miterlimit="10" d="M26,24H12c-1.1,0-2-0.9-2-2V12c0-1.1,0.9-2,2-2
	H26c1.1,0,2,0.9,2,2V22C28,23.1,27.1,24,26,24z"/>
<path fill="#FFFFFF" stroke="#53A2F2" stroke-width="2" stroke-miterlimit="10" d="M26,26H10c-1.1,0-2-0.9-2-2V12c0-1.1,0.9-2,2-2h4
	l4,4h10v10C28,25.1,27.1,26,26,26z"/>
</svg>
