<?xml version="1.0" encoding="utf-8"?>
<!-- Generator: Adobe Illustrator 18.1.1, SVG Export Plug-In . SVG Version: 6.00 Build 0)  -->
<svg version="1.1" id="Layer_1" xmlns="http://www.w3.org/2000/svg" xmlns:xlink="http://www.w3.org/1999/xlink" x="0px" y="0px"
	 viewBox="0 0 36 36" enable-background="new 0 0 36 36" xml:space="preserve">
<circle fill="#D7D4FF" cx="18" cy="18" r="17"/>
<g>
	<path fill="#FFFFFF" d="M11,21.5c-0.8,0-1.5-0.7-1.5-1.5V9c0-0.8,0.7-1.5,1.5-1.5h3.6c0.4,0,0.8,0.2,1.1,0.4l2.4,2.4
		c0.1,0.1,0.2,0.1,0.4,0.1H26c0.8,0,1.5,0.7,1.5,1.5v8c0,0.8-0.7,1.5-1.5,1.5H11z"/>
	<g>
		<path fill="#83B2E5" d="M14.6,8c0.3,0,0.5,0.1,0.7,0.3l2.4,2.4c0.2,0.2,0.4,0.3,0.7,0.3H26c0.6,0,1,0.4,1,1v3v5c0,0.6-0.4,1-1,1
			H11c-0.6,0-1-0.4-1-1v-5V9c0-0.6,0.4-1,1-1H14.6 M14.6,7H11C9.9,7,9,7.9,9,9v6v5c0,1.1,0.9,2,2,2h15c1.1,0,2-0.9,2-2v-5v-3
			c0-1.1-0.9-2-2-2h-7.6L16,7.6C15.6,7.2,15.1,7,14.6,7L14.6,7z"/>
	</g>
</g>
<g>
	<path fill="#FFFFFF" d="M10,24.5c-0.8,0-1.5-0.7-1.5-1.5V12c0-0.8,0.7-1.5,1.5-1.5h3.6c0.4,0,0.8,0.2,1.1,0.4l2.4,2.4
		c0.1,0.1,0.2,0.1,0.4,0.1H26c0.8,0,1.5,0.7,1.5,1.5v8c0,0.8-0.7,1.5-1.5,1.5H10z"/>
	<g>
		<path fill="#83B2E5" d="M13.6,11c0.3,0,0.5,0.1,0.7,0.3l2.4,2.4c0.2,0.2,0.4,0.3,0.7,0.3H26c0.6,0,1,0.4,1,1v3v5c0,0.6-0.4,1-1,1
			H10c-0.6,0-1-0.4-1-1v-5v-6c0-0.6,0.4-1,1-1H13.6 M13.6,10H10c-1.1,0-2,0.9-2,2v6v5c0,1.1,0.9,2,2,2h16c1.1,0,2-0.9,2-2v-5v-3
			c0-1.1-0.9-2-2-2h-8.6L15,10.6C14.6,10.2,14.1,10,13.6,10L13.6,10z"/>
	</g>
</g>
<path fill="#FFFFFF" stroke="#83B2E5" stroke-width="2" stroke-miterlimit="10" d="M26,27H10c-1.1,0-2-0.9-2-2v-8h4l3,4h5.9l3.1-4h4
	v8C28,26.1,27.1,27,26,27z"/>
</svg>
