<?xml version="1.0" encoding="utf-8"?>
<!-- Generator: Adobe Illustrator 18.1.1, SVG Export Plug-In . SVG Version: 6.00 Build 0)  -->
<svg version="1.1" id="Layer_1" xmlns="http://www.w3.org/2000/svg" xmlns:xlink="http://www.w3.org/1999/xlink" x="0px" y="0px"
	 viewBox="0 0 36 30" enable-background="new 0 0 36 30" xml:space="preserve">
<g>
	<defs>
		<rect id="SVGID_15_" x="-117.3" y="2.2" width="164" height="26"/>
	</defs>
	<clipPath id="SVGID_2_">
		<use xlink:href="#SVGID_15_"  overflow="visible"/>
	</clipPath>
	<path clip-path="url(#SVGID_2_)" fill="#666666" d="M23.1,5.3c4.6,0,8.4,3.8,8.4,8.5c0,4.7-3.8,8.5-8.4,8.5c-4.6,0-8.4-3.8-8.4-8.5
		S18.5,5.3,23.1,5.3 M23.1,24.4c5.8,0,10.5-4.8,10.5-10.6S28.9,3.1,23.1,3.1c-5.8,0-10.5,4.8-10.5,10.6S17.3,24.4,23.1,24.4"/>
	<path clip-path="url(#SVGID_2_)" fill="#666666" d="M22.1,14C22.1,14,22.1,14,22.1,14c0,0.1,0,0.2,0.1,0.2c0,0,0,0.1,0,0.1
		c0,0,0,0.1,0,0.1c0,0.1,0.1,0.1,0.1,0.1c0,0,0,0,0,0l4.2,4.3c0.4,0.4,1.1,0.4,1.5,0c0.4-0.4,0.4-1.1,0-1.5l-3.9-3.9V9
		c0-0.6-0.5-1.1-1.1-1.1S22.1,8.5,22.1,9v4.7C22.1,13.8,22.1,13.9,22.1,14"/>
</g>
<polyline fill="none" stroke="#666666" points="0.9,10.7 4.9,7.1 8.9,10.7 "/>
<line fill="none" stroke="#666666" x1="4.9" y1="22.7" x2="4.9" y2="7.6"/>
<g>
	<defs>
		<rect id="SVGID_17_" x="-117.3" y="2.2" width="164" height="26"/>
	</defs>
	<clipPath id="SVGID_4_">
		<use xlink:href="#SVGID_17_"  overflow="visible"/>
	</clipPath>
</g>
<g>
	<defs>
		<rect id="SVGID_19_" x="-117.3" y="2.2" width="164" height="26"/>
	</defs>
	<clipPath id="SVGID_6_">
		<use xlink:href="#SVGID_19_"  overflow="visible"/>
	</clipPath>
</g>
</svg>
