<?xml version="1.0" encoding="utf-8"?>
<!-- Generator: Adobe Illustrator 18.1.1, SVG Export Plug-In . SVG Version: 6.00 Build 0)  -->
<svg version="1.1" id="Layer_1" xmlns="http://www.w3.org/2000/svg" xmlns:xlink="http://www.w3.org/1999/xlink" x="0px" y="0px"
	 viewBox="0 0 28 28" enable-background="new 0 0 28 28" xml:space="preserve">
<g>
	<path fill="#808080" d="M14,2c6.6,0,12,5.4,12,12s-5.4,12-12,12S2,20.6,2,14S7.4,2,14,2 M14,1C6.8,1,1,6.8,1,14s5.8,13,13,13
		c7.2,0,13-5.8,13-13S21.2,1,14,1L14,1z"/>
</g>
<polygon fill="#666666" points="7.8,17.4 7.5,20.5 7.5,20.5 10.7,20.2 17.4,13.5 14.5,10.7 "/>
<rect x="16.6" y="7.9" transform="matrix(0.7071 -0.7071 0.7071 0.7071 -1.7518 15.6839)" fill="#666666" width="2.9" height="4"/>
</svg>
