<?xml version="1.0" encoding="utf-8"?>
<!-- Generator: Adobe Illustrator 18.1.1, SVG Export Plug-In . SVG Version: 6.00 Build 0)  -->
<svg version="1.1" id="Layer_1" xmlns="http://www.w3.org/2000/svg" xmlns:xlink="http://www.w3.org/1999/xlink" x="0px" y="0px"
	 viewBox="57.4 -4.9 32 32" enable-background="new 57.4 -4.9 32 32" xml:space="preserve">
<g>
	<defs>
		<rect id="SVGID_1_" x="59.8" y="-2.5" width="27" height="27"/>
	</defs>
	<clipPath id="SVGID_2_">
		<use xlink:href="#SVGID_1_"  overflow="visible"/>
	</clipPath>
	<path clip-path="url(#SVGID_2_)" fill="#009983" d="M73.2,24.5c7.5,0,13.5-6,13.5-13.5c0-7.5-6-13.5-13.5-13.5S59.8,3.5,59.8,11
		C59.8,18.5,65.8,24.5,73.2,24.5"/>
	<path clip-path="url(#SVGID_2_)" fill="#70C5B1" d="M79.6,11.8L79.6,11.8c0.3-0.3,0.4-0.6,0.3-0.9c0-0.3-0.1-0.6-0.3-0.9l-5.5-5.5
		c-0.4-0.4-1.1-0.4-1.5,0l-0.2,0.2c-0.4,0.4-0.4,1.1,0,1.5l3.4,3.4l-8,0.2c-0.6,0-1.1,0.5-1.1,1.1l0,0.3c0,0.6,0.5,1.1,1.1,1.1
		l8-0.2l-3.5,3.5c-0.4,0.4-0.4,1.1,0,1.5l0.2,0.2c0.4,0.4,1.1,0.4,1.5,0L79.6,11.8C79.5,11.8,79.6,11.8,79.6,11.8"/>
</g>
</svg>
