<?xml version="1.0" encoding="utf-8"?>
<!-- Generator: Adobe Illustrator 18.1.1, SVG Export Plug-In . SVG Version: 6.00 Build 0)  -->
<svg version="1.1" id="Layer_1" xmlns="http://www.w3.org/2000/svg" xmlns:xlink="http://www.w3.org/1999/xlink" x="0px" y="0px"
	 viewBox="57.4 -4.9 32 32" enable-background="new 57.4 -4.9 32 32" xml:space="preserve">
<g>
	<defs>
		<rect id="SVGID_1_" x="59.9" y="-2.6" width="27" height="27"/>
	</defs>
	<clipPath id="SVGID_2_">
		<use xlink:href="#SVGID_1_"  overflow="visible"/>
	</clipPath>
	<path clip-path="url(#SVGID_2_)" fill="#FFFFFF" d="M73.4,24.4c7.5,0,13.5-6,13.5-13.5c0-7.5-6-13.5-13.5-13.5s-13.5,6-13.5,13.5
		C59.9,18.3,65.9,24.4,73.4,24.4"/>
	<path clip-path="url(#SVGID_2_)" fill="#808080" d="M80.9,4.5L80.9,4.5c0-0.4-0.2-0.6-0.4-0.8c-0.2-0.2-0.4-0.4-0.7-0.4h-7.2
		c-0.5,0-1,0.4-1,1v0.3c0,0.5,0.4,1,1,1l4.5,0l-5.1,5.1c-0.4,0.4-0.4,1,0,1.4l0.2,0.2c0.4,0.4,1,0.4,1.4,0l5.1-5.1v4.4
		c0,0.5,0.4,1,1,1h0.3c0.5,0,1-0.4,1-1V4.5C80.9,4.6,80.9,4.6,80.9,4.5"/>
	<path clip-path="url(#SVGID_2_)" fill="#808080" d="M78.6,15.3V15c0-0.5,0.4-1,1-1h0.3c0.5,0,1,0.4,1,1v2.3c0,0.1,0,0.2,0,0.2
		c0,0.2-0.2,0.4-0.3,0.6c-0.2,0.2-0.4,0.3-0.7,0.3H67c-0.6,0-1.1-0.5-1.1-1.1V4.5c0-0.1,0-0.2,0-0.3c0.1-0.5,0.5-0.8,1-0.8h2.4
		c0.5,0,1,0.4,1,1v0.3c0,0.5-0.4,1-1,1H69c-0.5,0.1-0.9,0.5-0.9,1.1v8.4c0,0.6,0.5,1.1,1.1,1.1h8.4C78.1,16.1,78.5,15.8,78.6,15.3"
		/>
</g>
</svg>
