<?xml version="1.0" encoding="utf-8"?>
<!-- Generator: Adobe Illustrator 18.1.1, SVG Export Plug-In . SVG Version: 6.00 Build 0)  -->
<svg version="1.1" id="Layer_1" xmlns="http://www.w3.org/2000/svg" xmlns:xlink="http://www.w3.org/1999/xlink" x="0px" y="0px"
	 viewBox="0 0 30 30" enable-background="new 0 0 30 30" xml:space="preserve">
<g>
	<defs>
		<rect id="SVGID_5_" x="-146.6" y="-109.2" width="175.3" height="178.9"/>
	</defs>
	<clipPath id="SVGID_2_">
		<use xlink:href="#SVGID_5_"  overflow="visible"/>
	</clipPath>
	<path clip-path="url(#SVGID_2_)" fill="#FFFFFF" d="M15.2,29c7.5,0,13.5-6,13.5-13.5C28.7,8,22.6,2,15.2,2C7.7,2,1.7,8,1.7,15.5
		C1.7,22.9,7.7,29,15.2,29"/>
	<path clip-path="url(#SVGID_2_)" fill="#808080" d="M9.2,17.5c1.1,0,2-0.9,2-2c0-1.1-0.9-2-2-2c-1.1,0-2,0.9-2,2
		C7.2,16.6,8.1,17.5,9.2,17.5"/>
	<path clip-path="url(#SVGID_2_)" fill="#808080" d="M15.2,17.5c1.1,0,2-0.9,2-2c0-1.1-0.9-2-2-2c-1.1,0-2,0.9-2,2
		C13.2,16.6,14.1,17.5,15.2,17.5"/>
	<path clip-path="url(#SVGID_2_)" fill="#808080" d="M21.2,17.5c1.1,0,2-0.9,2-2c0-1.1-0.9-2-2-2c-1.1,0-2,0.9-2,2
		C19.2,16.6,20.1,17.5,21.2,17.5"/>
</g>
<g>
	<defs>
		<rect id="SVGID_7_" x="-146.6" y="-109.2" width="175.3" height="178.9"/>
	</defs>
	<clipPath id="SVGID_4_">
		<use xlink:href="#SVGID_7_"  overflow="visible"/>
	</clipPath>
</g>
<g>
	<defs>
		<rect id="SVGID_9_" x="-146.6" y="-109.2" width="175.3" height="178.9"/>
	</defs>
	<clipPath id="SVGID_6_">
		<use xlink:href="#SVGID_9_"  overflow="visible"/>
	</clipPath>
</g>
<g>
	<defs>
		<rect id="SVGID_11_" x="-146.6" y="-109.2" width="175.3" height="178.9"/>
	</defs>
	<clipPath id="SVGID_8_">
		<use xlink:href="#SVGID_11_"  overflow="visible"/>
	</clipPath>
</g>
<g>
	<defs>
		<rect id="SVGID_13_" x="-146.6" y="-109.2" width="175.3" height="178.9"/>
	</defs>
	<clipPath id="SVGID_10_">
		<use xlink:href="#SVGID_13_"  overflow="visible"/>
	</clipPath>
</g>
</svg>
