<?xml version="1.0" encoding="utf-8"?>
<!-- Generator: Adobe Illustrator 18.1.1, SVG Export Plug-In . SVG Version: 6.00 Build 0)  -->
<svg version="1.1" id="Layer_1" xmlns="http://www.w3.org/2000/svg" xmlns:xlink="http://www.w3.org/1999/xlink" x="0px" y="0px"
	 viewBox="0 0 38 30" enable-background="new 0 0 38 30" xml:space="preserve">
<g>
	<defs>
		<rect id="SVGID_21_" x="1.6" y="2.8" width="35.7" height="26"/>
	</defs>
	<clipPath id="SVGID_2_">
		<use xlink:href="#SVGID_21_"  overflow="visible"/>
	</clipPath>
	<path clip-path="url(#SVGID_2_)" fill="#CCCCCC" d="M25.2,17.9H4c-0.7,0-1.3-0.6-1.3-1.3V5.3c0-0.8,0.7-1.5,1.5-1.5h6.2
		c0.4,0,0.7,0.1,0.9,0.4l2.4,2.4C13.9,6.9,14.2,7,14.6,7H25c0.8,0,1.5,0.7,1.5,1.5v8C26.5,17.3,25.9,17.9,25.2,17.9"/>
	<path clip-path="url(#SVGID_2_)" fill="none" stroke="#666666" stroke-width="2" stroke-miterlimit="10" d="M25.2,17.9H4
		c-0.7,0-1.3-0.6-1.3-1.3V5.3c0-0.8,0.7-1.5,1.5-1.5h6.2c0.4,0,0.7,0.1,0.9,0.4l2.4,2.4C13.9,6.9,14.2,7,14.6,7H25
		c0.8,0,1.5,0.7,1.5,1.5v8C26.5,17.3,25.9,17.9,25.2,17.9z"/>
	<path clip-path="url(#SVGID_2_)" fill="#CCCCCC" d="M24.3,23.9H4.9c-1.2,0-2.2-1-2.2-2.2v-9h23.9v9C26.5,22.8,25.5,23.9,24.3,23.9"
		/>
	<path clip-path="url(#SVGID_2_)" fill="none" stroke="#666666" stroke-width="2" stroke-miterlimit="10" d="M24.3,23.9H4.9
		c-1.2,0-2.2-1-2.2-2.2v-9h23.9v9C26.5,22.8,25.5,23.9,24.3,23.9z"/>
	<path clip-path="url(#SVGID_2_)" fill="#CCCCCC" d="M17.3,20.2h-5.5c-1.1,0-2-0.9-2-2c0-1.1,0.9-2,2-2h5.5c1.1,0,2,0.9,2,2
		C19.4,19.3,18.4,20.2,17.3,20.2"/>
	<path clip-path="url(#SVGID_2_)" fill="none" stroke="#666666" stroke-width="2" stroke-miterlimit="10" d="M17.3,20.2h-5.5
		c-1.1,0-2-0.9-2-2c0-1.1,0.9-2,2-2h5.5c1.1,0,2,0.9,2,2C19.4,19.3,18.4,20.2,17.3,20.2z"/>
	<path clip-path="url(#SVGID_2_)" fill="#CCCCCC" d="M29.4,28.8c4.4,0,8-3.6,8-8c0-4.4-3.6-8-8-8s-8,3.6-8,8
		C21.4,25.3,24.9,28.8,29.4,28.8"/>
	
		<line clip-path="url(#SVGID_2_)" fill="none" stroke="#666666" stroke-width="2" stroke-miterlimit="10" x1="29.4" y1="15.8" x2="29.4" y2="25.8"/>
	
		<line clip-path="url(#SVGID_2_)" fill="none" stroke="#666666" stroke-width="2" stroke-miterlimit="10" x1="34.4" y1="20.8" x2="24.4" y2="20.8"/>
</g>
</svg>
