<?xml version="1.0" encoding="utf-8"?>
<!-- Generator: Adobe Illustrator 18.1.1, SVG Export Plug-In . SVG Version: 6.00 Build 0)  -->
<svg version="1.1" id="Layer_1" xmlns="http://www.w3.org/2000/svg" xmlns:xlink="http://www.w3.org/1999/xlink" x="0px" y="0px"
	 viewBox="0 0 38 30" enable-background="new 0 0 38 30" xml:space="preserve">
<g>
	<defs>
		<rect id="SVGID_23_" x="2.3" y="2.8" width="35.7" height="26"/>
	</defs>
	<clipPath id="SVGID_2_">
		<use xlink:href="#SVGID_23_"  overflow="visible"/>
	</clipPath>
	<path clip-path="url(#SVGID_2_)" fill="#097BEC" d="M25.9,17.9H4.7c-0.7,0-1.3-0.6-1.3-1.3V5.3c0-0.8,0.7-1.5,1.5-1.5H11
		c0.4,0,0.7,0.1,0.9,0.4l2.4,2.4C14.6,6.8,14.9,7,15.3,7h10.5c0.8,0,1.5,0.7,1.5,1.5v8C27.2,17.3,26.6,17.9,25.9,17.9"/>
	<path clip-path="url(#SVGID_2_)" fill="none" stroke="#FFFFFF" stroke-width="2" stroke-miterlimit="10" d="M25.9,17.9H4.7
		c-0.7,0-1.3-0.6-1.3-1.3V5.3c0-0.8,0.7-1.5,1.5-1.5H11c0.4,0,0.7,0.1,0.9,0.4l2.4,2.4C14.6,6.8,14.9,7,15.3,7h10.5
		c0.8,0,1.5,0.7,1.5,1.5v8C27.2,17.3,26.6,17.9,25.9,17.9z"/>
	<path clip-path="url(#SVGID_2_)" fill="#097BEC" d="M25,23.8H5.6c-1.2,0-2.2-1-2.2-2.2v-9h23.9v9C27.2,22.8,26.2,23.8,25,23.8"/>
	<path clip-path="url(#SVGID_2_)" fill="none" stroke="#FFFFFF" stroke-width="2" stroke-miterlimit="10" d="M25,23.8H5.6
		c-1.2,0-2.2-1-2.2-2.2v-9h23.9v9C27.2,22.8,26.2,23.8,25,23.8z"/>
	<path clip-path="url(#SVGID_2_)" fill="#097BEC" d="M18,20.2h-5.5c-1.1,0-2-0.9-2-2c0-1.1,0.9-2,2-2H18c1.1,0,2,0.9,2,2
		C20.1,19.3,19.2,20.2,18,20.2"/>
	<path clip-path="url(#SVGID_2_)" fill="none" stroke="#FFFFFF" stroke-width="2" stroke-miterlimit="10" d="M18,20.2h-5.5
		c-1.1,0-2-0.9-2-2c0-1.1,0.9-2,2-2H18c1.1,0,2,0.9,2,2C20.1,19.3,19.2,20.2,18,20.2z"/>
	<path clip-path="url(#SVGID_2_)" fill="#097BEC" d="M30.1,28.8c4.4,0,8-3.6,8-8c0-4.4-3.6-8-8-8s-8,3.6-8,8
		C22.1,25.3,25.7,28.8,30.1,28.8"/>
	
		<line clip-path="url(#SVGID_2_)" fill="none" stroke="#FFFFFF" stroke-width="2" stroke-miterlimit="10" x1="30.1" y1="15.8" x2="30.1" y2="25.8"/>
	
		<line clip-path="url(#SVGID_2_)" fill="none" stroke="#FFFFFF" stroke-width="2" stroke-miterlimit="10" x1="35.1" y1="20.8" x2="25.1" y2="20.8"/>
</g>
</svg>
