<?xml version="1.0" encoding="utf-8"?>
<!-- Generator: Adobe Illustrator 18.1.1, SVG Export Plug-In . SVG Version: 6.00 Build 0)  -->
<svg version="1.1" id="Layer_1" xmlns="http://www.w3.org/2000/svg" xmlns:xlink="http://www.w3.org/1999/xlink" x="0px" y="0px"
	 viewBox="0 0 28 36" enable-background="new 0 0 28 36" xml:space="preserve">
<g>
	<defs>
		<rect id="SVGID_27_" x="-97" y="-16.4" width="238.7" height="49.9"/>
	</defs>
	<clipPath id="SVGID_2_">
		<use xlink:href="#SVGID_27_"  overflow="visible"/>
	</clipPath>
	<path clip-path="url(#SVGID_2_)" fill="#FFFFFF" d="M15.9,18.4L15.9,18.4c0.3-0.3,0.4-0.7,0.4-1.1c0-0.4-0.1-0.7-0.3-1l-6.2-6.2
		c-0.5-0.5-1.3-0.5-1.8,0l-0.3,0.3c-0.5,0.5-0.5,1.3,0,1.8l3.9,3.9l-9.1,0.2c-0.7,0-1.2,0.6-1.3,1.3l0,0.4c0,0.7,0.5,1.2,1.2,1.2
		l9.1-0.2l-4,4c-0.5,0.5-0.5,1.3,0,1.8l0.2,0.2c0.5,0.5,1.3,0.5,1.8,0L15.9,18.4C15.9,18.4,15.9,18.4,15.9,18.4"/>
	<path clip-path="url(#SVGID_2_)" fill="none" stroke="#FFFFFF" stroke-width="2" d="M8.8,3.2h14c0,0,2,0,2,2v25.3c0,0,0,2-2,2h-14"
		/>
</g>
<rect x="-97" y="-16.4" fill="none" width="238.7" height="49.9"/>
</svg>
