<?xml version="1.0" encoding="utf-8"?>
<!-- Generator: Adobe Illustrator 18.1.1, SVG Export Plug-In . SVG Version: 6.00 Build 0)  -->
<svg version="1.1" id="Layer_1" xmlns="http://www.w3.org/2000/svg" xmlns:xlink="http://www.w3.org/1999/xlink" x="0px" y="0px"
	 viewBox="0 0 28 36" enable-background="new 0 0 28 36" xml:space="preserve">
<g>
	<defs>
		<rect id="SVGID_27_" x="-216.6" y="2.3" width="238.7" height="49.9"/>
	</defs>
	<clipPath id="SVGID_2_">
		<use xlink:href="#SVGID_27_"  overflow="visible"/>
	</clipPath>
	<g clip-path="url(#SVGID_2_)">
		<defs>
			<rect id="SVGID_29_" x="-0.8" y="-1.3" width="34.9" height="34.9"/>
		</defs>
		<clipPath id="SVGID_4_">
			<use xlink:href="#SVGID_29_"  overflow="visible"/>
		</clipPath>
		<path clip-path="url(#SVGID_4_)" fill="#FFFFFF" d="M21.7,19.2L21.7,19.2c0.3-0.3,0.4-0.7,0.4-1.1c0-0.4-0.1-0.7-0.3-1l-6.2-6.2
			c-0.5-0.5-1.3-0.5-1.8,0l-0.3,0.3c-0.5,0.5-0.5,1.3,0,1.8l3.9,3.9L8.3,17C7.6,17,7,17.6,7,18.3l0,0.4c0,0.7,0.5,1.2,1.2,1.2
			l9.1-0.2l-4,4c-0.5,0.5-0.5,1.3,0,1.8l0.2,0.2c0.5,0.5,1.3,0.5,1.8,0L21.7,19.2C21.7,19.2,21.7,19.2,21.7,19.2"/>
	</g>
</g>
<rect x="-216.6" y="2.3" fill="none" width="238.7" height="49.9"/>
</svg>
