<?xml version="1.0" encoding="utf-8"?>
<!-- Generator: Adobe Illustrator 18.1.1, SVG Export Plug-In . SVG Version: 6.00 Build 0)  -->
<svg version="1.1" id="Layer_1" xmlns="http://www.w3.org/2000/svg" xmlns:xlink="http://www.w3.org/1999/xlink" x="0px" y="0px"
	 viewBox="0 0 30 30" enable-background="new 0 0 30 30" xml:space="preserve">
<g>
	<defs>
		<rect id="SVGID_5_" x="-107.9" y="-109.2" width="175.3" height="178.9"/>
	</defs>
	<clipPath id="SVGID_2_">
		<use xlink:href="#SVGID_5_"  overflow="visible"/>
	</clipPath>
	<path clip-path="url(#SVGID_2_)" fill="#FFFFFF" d="M15.5,29.8c7.5,0,13.5-6,13.5-13.5c0-7.5-6-13.5-13.5-13.5C8,2.8,2,8.9,2,16.3
		C2,23.8,8,29.8,15.5,29.8"/>
</g>
<g>
	<defs>
		<rect id="SVGID_7_" x="-107.9" y="-109.2" width="175.3" height="178.9"/>
	</defs>
	<clipPath id="SVGID_4_">
		<use xlink:href="#SVGID_7_"  overflow="visible"/>
	</clipPath>
</g>
<g>
	<defs>
		<rect id="SVGID_9_" x="-107.9" y="-109.2" width="175.3" height="178.9"/>
	</defs>
	<clipPath id="SVGID_6_">
		<use xlink:href="#SVGID_9_"  overflow="visible"/>
	</clipPath>
	<path clip-path="url(#SVGID_6_)" fill="#808080" d="M17.1,19.2c-0.5,0-1,0.2-1.5,0.5l-3.2-2.2c0-0.2,0.1-0.4,0.1-0.6
		c0-0.2,0-0.4-0.1-0.6l3.2-2.2c0.4,0.3,0.9,0.5,1.5,0.5c1.4,0,2.6-1.2,2.6-2.6c0-1.4-1.2-2.6-2.6-2.6c-1.4,0-2.6,1.2-2.6,2.6
		c0,0.2,0,0.4,0.1,0.6l-3.2,2.2c-0.4-0.3-0.9-0.5-1.5-0.5c-1.4,0-2.6,1.2-2.6,2.6s1.2,2.6,2.6,2.6c0.5,0,1-0.2,1.5-0.5l3.2,2.2
		c0,0.2-0.1,0.4-0.1,0.6c0,1.4,1.2,2.6,2.6,2.6c1.4,0,2.6-1.2,2.6-2.6S18.5,19.2,17.1,19.2"/>
</g>
<g>
	<defs>
		<rect id="SVGID_11_" x="-107.9" y="-109.2" width="175.3" height="178.9"/>
	</defs>
	<clipPath id="SVGID_8_">
		<use xlink:href="#SVGID_11_"  overflow="visible"/>
	</clipPath>
</g>
<g>
	<defs>
		<rect id="SVGID_13_" x="-107.9" y="-109.2" width="175.3" height="178.9"/>
	</defs>
	<clipPath id="SVGID_10_">
		<use xlink:href="#SVGID_13_"  overflow="visible"/>
	</clipPath>
</g>
</svg>
