<?xml version="1.0" encoding="utf-8"?>
<!-- Generator: Adobe Illustrator 18.1.1, SVG Export Plug-In . SVG Version: 6.00 Build 0)  -->
<svg version="1.1" id="Layer_1" xmlns="http://www.w3.org/2000/svg" xmlns:xlink="http://www.w3.org/1999/xlink" x="0px" y="0px"
	 viewBox="0 0 28 28" enable-background="new 0 0 28 28" xml:space="preserve">
<g>
	<path fill="#CCCCCC" d="M14,2c6.6,0,12,5.4,12,12s-5.4,12-12,12S2,20.6,2,14S7.4,2,14,2 M14,1C6.8,1,1,6.8,1,14s5.8,13,13,13
		s13-5.8,13-13S21.2,1,14,1L14,1z"/>
</g>
<path fill="#808080" d="M16.8,16.8c-0.5,0-1.1,0.2-1.5,0.5L12.1,15c0-0.2,0.1-0.4,0.1-0.6c0-0.2,0-0.4-0.1-0.6l3.2-2.2
	c0.4,0.3,0.9,0.5,1.5,0.5c1.4,0,2.6-1.2,2.6-2.6c0-1.4-1.2-2.6-2.6-2.6c-1.4,0-2.6,1.2-2.6,2.6c0,0.2,0,0.4,0.1,0.6l-3.2,2.2
	c-0.4-0.3-0.9-0.5-1.5-0.5C8.2,11.8,7,13,7,14.4C7,15.8,8.2,17,9.6,17c0.5,0,1.1-0.2,1.5-0.5l3.2,2.2c0,0.2-0.1,0.4-0.1,0.6
	c0,1.4,1.2,2.6,2.6,2.6c1.4,0,2.6-1.2,2.6-2.6S18.3,16.8,16.8,16.8"/>
</svg>
