<?xml version="1.0" encoding="utf-8"?>
<!-- Generator: Adobe Illustrator 18.1.1, SVG Export Plug-In . SVG Version: 6.00 Build 0)  -->
<svg version="1.1" id="Layer_1" xmlns="http://www.w3.org/2000/svg" xmlns:xlink="http://www.w3.org/1999/xlink" x="0px" y="0px"
	 viewBox="0 0 32 32" enable-background="new 0 0 32 32" xml:space="preserve">
<path fill="#333333" stroke="#53A2F2" stroke-width="2" stroke-miterlimit="10" d="M7,7h5.6c0.3,0,0.5,0.1,0.7,0.3l2.4,2.4
	c0.2,0.2,0.4,0.3,0.7,0.3H25c0.6,0,1,0.4,1,1v12c0,0.6-0.4,1-1,1H7c-0.6,0-1-0.4-1-1V8C6,7.4,6.4,7,7,7z"/>
<path fill="#333333" stroke="#53A2F2" stroke-width="2" stroke-miterlimit="10" d="M5.8,23.3l-2.4-8c-0.2-0.6,0.3-1.3,1-1.3h23.3
	c0.7,0,1.2,0.6,1,1.3l-2.4,8c-0.1,0.4-0.5,0.7-1,0.7H6.7C6.3,24,5.9,23.7,5.8,23.3z"/>
</svg>
