<?xml version="1.0" encoding="utf-8"?>
<!-- Generator: Adobe Illustrator 18.1.1, SVG Export Plug-In . SVG Version: 6.00 Build 0)  -->
<svg version="1.1" id="Layer_1" xmlns="http://www.w3.org/2000/svg" xmlns:xlink="http://www.w3.org/1999/xlink" x="0px" y="0px"
	 viewBox="0 0 28 28" enable-background="new 0 0 28 28" xml:space="preserve">
<g>
	<path fill="#333333" d="M14,26.5C7.1,26.5,1.5,20.9,1.5,14C1.5,7.2,7.1,1.6,14,1.6c6.9,0,12.5,5.6,12.5,12.5
		C26.4,20.9,20.8,26.5,14,26.5z"/>
	<path fill="#808080" d="M14,2.1c6.6,0,12,5.4,12,12s-5.4,12-12,12S2,20.6,2,14S7.4,2.1,14,2.1 M14,1.1C6.8,1.1,1,6.9,1,14
		s5.8,13,13,13s13-5.8,13-13S21.1,1.1,14,1.1L14,1.1z"/>
</g>
<path fill="none" stroke="#B3B3B3" stroke-width="2" d="M19,12v-1.5c0-0.3-0.2-0.5-0.5-0.5h-4c-0.1,0-0.2-0.1-0.3-0.1l-1.6-1.7
	C12.6,8.1,12.5,8,12.3,8H7.4C7.2,8,7,8.2,7,8.5l0,9C7,17.8,7.2,18,7.5,18H13"/>
<line fill="none" stroke="#B3B3B3" stroke-width="2" x1="15" y1="18" x2="23" y2="18"/>
<line fill="none" stroke="#B3B3B3" stroke-width="2" x1="19" y1="14" x2="19" y2="22"/>
</svg>
