<?xml version="1.0" encoding="utf-8"?>
<!-- Generator: Adobe Illustrator 18.1.1, SVG Export Plug-In . SVG Version: 6.00 Build 0)  -->
<svg version="1.1" id="Layer_1" xmlns="http://www.w3.org/2000/svg" xmlns:xlink="http://www.w3.org/1999/xlink" x="0px" y="0px"
	 viewBox="0 0 28 28" enable-background="new 0 0 28 28" xml:space="preserve">
<g>
	<path fill="#333333" d="M14,26.5C7.1,26.5,1.5,20.9,1.5,14S7.1,1.5,14,1.5S26.5,7.1,26.5,14S20.9,26.5,14,26.5z"/>
	<g>
		<path fill="#CCCCCC" d="M14,2c6.6,0,12,5.4,12,12s-5.4,12-12,12S2,20.6,2,14S7.4,2,14,2 M14,1C6.8,1,1,6.8,1,14s5.8,13,13,13
			s13-5.8,13-13S21.2,1,14,1L14,1z"/>
	</g>
</g>
<path fill="#CCCCCC" d="M19.8,14.9L19.8,14.9c0.2-0.2,0.3-0.5,0.3-0.8c0-0.3-0.1-0.6-0.3-0.8l-5.1-5c-0.4-0.4-1-0.4-1.4,0l-0.2,0.2
	c-0.4,0.4-0.4,1,0,1.4l3.2,3.1L9,13c-0.5,0-1,0.4-1,1l0,0.3c0,0.5,0.4,1,1,1l7.2,0l-3.1,3.1c-0.4,0.4-0.4,1,0,1.4l0.2,0.2
	c0.4,0.4,1,0.4,1.4,0L19.8,14.9C19.7,14.9,19.7,14.9,19.8,14.9z"/>
</svg>
