<?xml version="1.0" encoding="utf-8"?>
<!-- Generator: Adobe Illustrator 18.1.1, SVG Export Plug-In . SVG Version: 6.00 Build 0)  -->
<svg version="1.1" id="Layer_1" xmlns="http://www.w3.org/2000/svg" xmlns:xlink="http://www.w3.org/1999/xlink" x="0px" y="0px"
	 viewBox="0 0 38 26" enable-background="new 0 0 38 26" xml:space="preserve">
<g>
	<defs>
		<rect id="SVGID_27_" x="6" y="4" width="27.4" height="18"/>
	</defs>
	<clipPath id="SVGID_2_">
		<use xlink:href="#SVGID_27_"  overflow="visible"/>
	</clipPath>
	<path clip-path="url(#SVGID_2_)" fill="#666666" d="M15,16.3c-1.8,0-3.3-1.5-3.3-3.3c0-1.8,1.5-3.3,3.3-3.3c1.8,0,3.3,1.5,3.3,3.3
		C18.3,14.8,16.8,16.3,15,16.3 M23.2,14.6c0.3,0,0.6-0.3,0.7-0.6c0,0,0.1-0.5,0.1-1c0-0.6-0.1-1-0.1-1c0-0.3-0.4-0.6-0.7-0.6h-1.7
		c-0.3,0-0.7-0.2-0.8-0.5c-0.1-0.3-0.2-1.1,0-1.3L22,8.3c0.2-0.2,0.3-0.6,0-0.9L20.6,6c-0.3-0.2-0.7-0.2-0.9,0l-1.2,1.2
		c-0.2,0.2-0.6,0.3-0.9,0.2c-0.2-0.1-0.9-0.6-0.9-1V4.8c0-0.3-0.3-0.6-0.6-0.7c0,0-0.5-0.1-1-0.1s-1,0.1-1,0.1
		c-0.3,0-0.6,0.4-0.6,0.7v1.7c0,0.3-0.2,0.7-0.5,0.8c-0.3,0.1-1.1,0.2-1.3,0L10.3,6c-0.2-0.2-0.6-0.3-0.9,0L8,7.4
		C7.8,7.7,7.8,8.1,8,8.3l1.2,1.2c0.2,0.2,0.3,0.6,0.2,0.9c-0.1,0.2-0.6,0.9-1,0.9H6.8c-0.3,0-0.6,0.3-0.7,0.6c0,0-0.1,0.5-0.1,1
		c0,0.6,0.1,1,0.1,1c0,0.3,0.4,0.6,0.7,0.6h1.7c0.3,0,0.7,0.2,0.8,0.5c0.1,0.3,0.2,1.1,0,1.3L8,17.7c-0.2,0.2-0.3,0.6,0,0.9L9.4,20
		c0.3,0.2,0.7,0.2,0.9,0l1.2-1.2c0.2-0.2,0.6-0.3,0.9-0.2c0.2,0.1,0.9,0.6,0.9,1v1.7c0,0.3,0.3,0.6,0.6,0.7c0,0,0.5,0.1,1,0.1
		s1-0.1,1-0.1c0.3,0,0.6-0.4,0.6-0.7v-1.7c0-0.3,0.2-0.7,0.5-0.8c0.3-0.1,1.1-0.2,1.3,0l1.2,1.2c0.2,0.2,0.6,0.3,0.9,0l1.4-1.4
		c0.2-0.3,0.2-0.7,0-0.9l-1.2-1.2c-0.2-0.2-0.3-0.6-0.2-0.9c0.1-0.2,0.6-0.9,1-0.9H23.2z"/>
</g>
<polygon fill="#666666" points="26.4,13 29.9,16.2 33.4,13 "/>
</svg>
