<?xml version="1.0" encoding="utf-8"?>
<!-- Generator: Adobe Illustrator 18.1.1, SVG Export Plug-In . SVG Version: 6.00 Build 0)  -->
<svg version="1.1" id="Layer_1" xmlns="http://www.w3.org/2000/svg" xmlns:xlink="http://www.w3.org/1999/xlink" x="0px" y="0px"
	 viewBox="0 0 32 32" enable-background="new 0 0 32 32" xml:space="preserve">
<g>
	<defs>
		<rect id="SVGID_11_" x="2" y="2" width="28" height="28"/>
	</defs>
	<clipPath id="SVGID_2_">
		<use xlink:href="#SVGID_11_"  overflow="visible"/>
	</clipPath>
	<path clip-path="url(#SVGID_2_)" fill="#928D92" d="M16,30c7.7,0,14-6.3,14-14c0-7.7-6.3-14-14-14S2,8.3,2,16C2,23.7,8.3,30,16,30"
		/>
</g>
<line fill="none" stroke="#FFFFFF" stroke-miterlimit="10" x1="22.4" y1="22.6" x2="10.8" y2="10.9"/>
<line fill="none" stroke="#FFFFFF" stroke-miterlimit="10" x1="21.6" y1="10.7" x2="10.6" y2="21.9"/>
<g>
	<defs>
		<rect id="SVGID_13_" x="2" y="2" width="28" height="28"/>
	</defs>
	<clipPath id="SVGID_4_">
		<use xlink:href="#SVGID_13_"  overflow="visible"/>
	</clipPath>
	<path clip-path="url(#SVGID_4_)" fill="#FFFFFF" d="M22.5,10.9c0,0.6-0.5,1.1-1.1,1.1c-0.6,0-1.1-0.5-1.1-1.1
		c0-0.6,0.5-1.1,1.1-1.1C22,9.8,22.5,10.3,22.5,10.9"/>
	<circle clip-path="url(#SVGID_4_)" fill="none" stroke="#FFFFFF" stroke-miterlimit="10" cx="21.4" cy="10.9" r="1.1"/>
	<path clip-path="url(#SVGID_4_)" fill="#FFFFFF" d="M11.9,21.6c0,0.6-0.5,1.1-1.1,1.1c-0.6,0-1.1-0.5-1.1-1.1s0.5-1.1,1.1-1.1
		C11.4,20.5,11.9,21,11.9,21.6"/>
	<circle clip-path="url(#SVGID_4_)" fill="none" stroke="#FFFFFF" stroke-miterlimit="10" cx="10.8" cy="21.6" r="1.1"/>
	<path clip-path="url(#SVGID_4_)" fill="#FFFFFF" d="M20,16.2c0,2.1-1.7,3.8-3.8,3.8c-2.1,0-3.8-1.7-3.8-3.8c0-2.1,1.7-3.8,3.8-3.8
		C18.3,12.5,20,14.1,20,16.2"/>
	<circle clip-path="url(#SVGID_4_)" fill="none" stroke="#FFFFFF" stroke-miterlimit="10" cx="16.3" cy="16.2" r="3.8"/>
	<path clip-path="url(#SVGID_4_)" fill="#FFFFFF" d="M17.5,15.1c0.5,0.3,0.8,1.3,0.8,2"/>
	<path clip-path="url(#SVGID_4_)" fill="none" stroke="#FFFFFF" stroke-miterlimit="10" d="M17.5,15.1c0.5,0.3,0.8,1.3,0.8,2"/>
</g>
<rect x="6.3" y="8.6" transform="matrix(0.707 -0.7072 0.7072 0.707 -4.2092 9.9273)" fill="#FFFFFF" width="7.2" height="2.9"/>
<rect x="19" y="20.8" transform="matrix(0.707 -0.7073 0.7073 0.707 -9.1359 22.2999)" fill="#FFFFFF" width="6.8" height="2.7"/>
</svg>
