<?xml version="1.0" encoding="utf-8"?>
<!-- Generator: Adobe Illustrator 18.1.1, SVG Export Plug-In . SVG Version: 6.00 Build 0)  -->
<svg version="1.1" id="Layer_1" xmlns="http://www.w3.org/2000/svg" xmlns:xlink="http://www.w3.org/1999/xlink" x="0px" y="0px"
	 viewBox="0 0 32 32" enable-background="new 0 0 32 32" xml:space="preserve">
<g>
	<defs>
		<rect id="SVGID_5_" x="2" y="2" width="28" height="28"/>
	</defs>
	<clipPath id="SVGID_2_">
		<use xlink:href="#SVGID_5_"  overflow="visible"/>
	</clipPath>
	<path clip-path="url(#SVGID_2_)" fill="#FF901F" d="M16.6,8.1c0.5,0,0.9,0.4,0.9,0.9v0.2l-0.1,0.7L18,10c2,0.8,3.4,2.9,3.4,5.3
		c0,1.2,0.9,5.1,2.1,6.4c-0.2,0.1-0.7,0.4-1.6,0.6c-1,0.2-2.2,0.4-3.5,0.5c-0.6,0-1.1,0.1-1.7,0.1c-0.6,0-1.1,0-1.7-0.1
		c-1.3-0.1-2.5-0.3-3.5-0.5c-1-0.2-1.4-0.4-1.6-0.6c1.1-1.3,2.1-5.2,2.1-6.4c0-2.4,1.4-4.6,3.4-5.3l0.7-0.2l-0.1-0.6V9
		C15.6,8.4,16,8.1,16.6,8.1"/>
	<path clip-path="url(#SVGID_2_)" fill="#F37024" d="M16,30c7.7,0,14-6.3,14-14c0-7.7-6.3-14-14-14S2,8.3,2,16C2,23.7,8.3,30,16,30"
		/>
	<path clip-path="url(#SVGID_2_)" fill="#FFFFFF" d="M16,25.3c0.9,0,1.6-0.7,1.6-1.6c0-0.9-0.7-1.6-1.6-1.6s-1.6,0.7-1.6,1.6
		C14.4,24.6,15.1,25.3,16,25.3"/>
	<path clip-path="url(#SVGID_2_)" fill="#FFFFFF" d="M16,7.1L16,7.1c-0.9,0-1.7,0.7-1.7,1.7c0,0.1,0,0.2,0,0.3
		c-2.1,0.8-3.7,3.1-3.7,5.9c0,1.2-0.9,4.8-1.8,5.7c-0.7,0.7,0.3,1.4,2,1.7c1,0.2,2.2,0.4,3.5,0.5c0.6,0,1.2,0.1,1.7,0.1
		c0.5,0,1.1,0,1.7-0.1c1.2-0.1,2.4-0.3,3.5-0.5c1.7-0.4,2.8-1,2-1.7c-0.9-0.9-1.8-4.6-1.8-5.7c0-2.8-1.6-5.1-3.7-5.9
		c0-0.1,0-0.2,0-0.3C17.7,7.9,16.9,7.1,16,7.1"/>
</g>
</svg>
