<?xml version="1.0" encoding="utf-8"?>
<!-- Generator: Adobe Illustrator 18.1.1, SVG Export Plug-In . SVG Version: 6.00 Build 0)  -->
<svg version="1.1" id="Layer_1" xmlns="http://www.w3.org/2000/svg" xmlns:xlink="http://www.w3.org/1999/xlink" x="0px" y="0px"
	 viewBox="0 0 30 30" enable-background="new 0 0 30 30" xml:space="preserve">
<line fill="none" stroke="#FFFFFF" stroke-miterlimit="10" x1="21.4" y1="21.6" x2="9.8" y2="9.9"/>
<line fill="none" stroke="#FFFFFF" stroke-miterlimit="10" x1="20.6" y1="9.7" x2="9.6" y2="20.9"/>
<g>
	<defs>
		<rect id="SVGID_1_" x="1" y="1" width="28" height="28"/>
	</defs>
	<clipPath id="SVGID_2_">
		<use xlink:href="#SVGID_1_"  overflow="visible"/>
	</clipPath>
	<path clip-path="url(#SVGID_2_)" fill="#FFFFFF" d="M21.5,9.9c0,0.6-0.5,1.1-1.1,1.1c-0.6,0-1.1-0.5-1.1-1.1c0-0.6,0.5-1.1,1.1-1.1
		C21,8.8,21.5,9.3,21.5,9.9"/>
	<circle clip-path="url(#SVGID_2_)" fill="none" stroke="#FFFFFF" stroke-miterlimit="10" cx="20.4" cy="9.9" r="1.1"/>
	<path clip-path="url(#SVGID_2_)" fill="#FFFFFF" d="M10.9,20.6c0,0.6-0.5,1.1-1.1,1.1c-0.6,0-1.1-0.5-1.1-1.1s0.5-1.1,1.1-1.1
		C10.4,19.5,10.9,20,10.9,20.6"/>
	<circle clip-path="url(#SVGID_2_)" fill="none" stroke="#FFFFFF" stroke-miterlimit="10" cx="9.8" cy="20.6" r="1.1"/>
	<path clip-path="url(#SVGID_2_)" fill="#FFFFFF" d="M19,15.2c0,2.1-1.7,3.8-3.8,3.8c-2.1,0-3.8-1.7-3.8-3.8s1.7-3.8,3.8-3.8
		C17.3,11.5,19,13.1,19,15.2"/>
	<circle clip-path="url(#SVGID_2_)" fill="none" stroke="#FFFFFF" stroke-miterlimit="10" cx="15.3" cy="15.2" r="3.8"/>
	<path clip-path="url(#SVGID_2_)" fill="#FFFFFF" d="M16.5,14.1c0.5,0.3,0.8,1.3,0.8,2"/>
	<path clip-path="url(#SVGID_2_)" fill="none" stroke="#FFFFFF" stroke-miterlimit="10" d="M16.5,14.1c0.5,0.3,0.8,1.3,0.8,2"/>
</g>
<rect x="5.3" y="7.6" transform="matrix(0.707 -0.7072 0.7072 0.707 -3.795 8.927)" fill="#FFFFFF" width="7.2" height="2.9"/>
<rect x="18" y="19.8" transform="matrix(0.707 -0.7073 0.7073 0.707 -8.7218 21.2996)" fill="#FFFFFF" width="6.8" height="2.7"/>
<g>
	<defs>
		<rect id="SVGID_11_" x="1" y="1" width="28" height="28"/>
	</defs>
	<clipPath id="SVGID_4_">
		<use xlink:href="#SVGID_11_"  overflow="visible"/>
	</clipPath>
	<path clip-path="url(#SVGID_4_)" fill="#F37024" d="M15,29c7.7,0,14-6.3,14-14c0-7.7-6.3-14-14-14S1,7.3,1,15C1,22.7,7.3,29,15,29"
		/>
	<path clip-path="url(#SVGID_4_)" fill="#FFFFFF" d="M15,24.3c0.9,0,1.6-0.7,1.6-1.6c0-0.9-0.7-1.6-1.6-1.6c-0.9,0-1.6,0.7-1.6,1.6
		C13.4,23.6,14.2,24.3,15,24.3"/>
	<path clip-path="url(#SVGID_4_)" fill="#FFFFFF" d="M15,6.1L15,6.1c-0.9,0-1.7,0.7-1.7,1.7c0,0.1,0,0.2,0,0.3
		c-2.1,0.8-3.7,3.1-3.7,5.9c0,1.2-0.9,4.8-1.8,5.7c-0.7,0.7,0.3,1.4,2,1.7c1,0.2,2.2,0.4,3.5,0.5c0.6,0,1.2,0.1,1.7,0.1
		c0.5,0,1.1,0,1.7-0.1c1.2-0.1,2.4-0.3,3.5-0.5c1.7-0.4,2.8-1,2-1.7c-0.9-0.9-1.8-4.6-1.8-5.7c0-2.8-1.6-5.1-3.7-5.9
		c0-0.1,0-0.2,0-0.3C16.7,6.9,16,6.1,15,6.1"/>
</g>
</svg>
