<?xml version="1.0" encoding="utf-8"?>
<!-- Generator: Adobe Illustrator 18.1.1, SVG Export Plug-In . SVG Version: 6.00 Build 0)  -->
<svg version="1.1" id="Layer_1" xmlns="http://www.w3.org/2000/svg" xmlns:xlink="http://www.w3.org/1999/xlink" x="0px" y="0px"
	 viewBox="0 0 32 32" enable-background="new 0 0 32 32" xml:space="preserve">
<g>
	<defs>
		<rect id="SVGID_9_" x="2" y="2" width="28" height="28"/>
	</defs>
	<clipPath id="SVGID_2_">
		<use xlink:href="#SVGID_9_"  overflow="visible"/>
	</clipPath>
	<path clip-path="url(#SVGID_2_)" fill="#928D92" d="M16,30c7.7,0,14-6.3,14-14c0-7.7-6.3-14-14-14S2,8.3,2,16C2,23.7,8.3,30,16,30"
		/>
	<path clip-path="url(#SVGID_2_)" fill="#FFFFFF" d="M20.3,22.3c-1.7,1-3.5,1-4.7,0.6c-1.3-0.4-2.2,0.1-3.8,1.5l-1.4,1.3
		c-1.9-1-3.4-2.4-4.5-4.2l1.6-1.5C9,18.8,9.3,18.2,9,16.6c-0.4-1.8-0.4-3.9,1.9-5.9C11.2,10.5,12,10,12,9.9c3.5-2,7.6,0.3,7.6,0.3
		s-3.2,2-3.6,2.3c-0.5,0.3-1.9,1.8-0.2,4.1c1.6,2.4,3.4,1.6,3.9,1.2c0.4-0.2,3.6-2.2,3.6-2.2S23.9,20.1,20.3,22.3"/>
</g>
</svg>
