<?xml version="1.0" encoding="utf-8"?>
<!-- Generator: Adobe Illustrator 18.1.1, SVG Export Plug-In . SVG Version: 6.00 Build 0)  -->
<svg version="1.1" id="Layer_1" xmlns="http://www.w3.org/2000/svg" xmlns:xlink="http://www.w3.org/1999/xlink" x="0px" y="0px"
	 viewBox="0 0 32 32" enable-background="new 0 0 32 32" xml:space="preserve">
<g>
	<defs>
		<rect id="SVGID_3_" x="2" y="2" width="28" height="28"/>
	</defs>
	<clipPath id="SVGID_2_">
		<use xlink:href="#SVGID_3_"  overflow="visible"/>
	</clipPath>
	<path clip-path="url(#SVGID_2_)" fill="#F37024" d="M16,30c7.7,0,14-6.3,14-14c0-7.7-6.3-14-14-14S2,8.3,2,16C2,23.7,8.3,30,16,30"
		/>
	<path clip-path="url(#SVGID_2_)" fill="#FFFFFF" d="M23.7,12c-0.4-1-1.2-1.8-2.3-2.4c-1-0.5-2-0.5-3-0.2c-1,0.3-1.8,1.1-2.4,1.9
		c-0.6-0.9-1.5-1.7-2.4-1.9c-1-0.3-2-0.2-3,0.2C9.5,10.2,8.7,11,8.3,12c-0.4,1-0.4,2.2,0.1,3.3c0.9,2.1,6,6.8,7.3,8.1
		c0.2,0.2,0.5,0.2,0.6,0c1.3-1.3,6.4-5.9,7.3-8.1C24.1,14.2,24.1,13,23.7,12"/>
</g>
</svg>
