<?xml version="1.0" encoding="utf-8"?>
<!-- Generator: Adobe Illustrator 18.1.1, SVG Export Plug-In . SVG Version: 6.00 Build 0)  -->
<svg version="1.1" id="Layer_1" xmlns="http://www.w3.org/2000/svg" xmlns:xlink="http://www.w3.org/1999/xlink" x="0px" y="0px"
	 viewBox="0 0 32 32" enable-background="new 0 0 32 32" xml:space="preserve">
<path fill="#928D92" d="M16,30c7.7,0,14-6.3,14-14c0-7.7-6.3-14-14-14S2,8.3,2,16C2,23.7,8.3,30,16,30"/>
<path fill="#FFFFFF" d="M19.6,17.4c0,2.3-1.9,4.1-4.1,4.1c-2.3,0-4.1-1.9-4.1-4.1s1.9-4.1,4.1-4.1C17.8,13.2,19.6,15.1,19.6,17.4"/>
<circle fill="none" stroke="#FFFFFF" stroke-miterlimit="10" cx="15.5" cy="17.4" r="4.1"/>
<path fill="#FFFFFF" d="M17.4,15.2c0.5,0.3,0.7,1.2,0.7,1.8"/>
<path fill="none" stroke="#FFFFFF" stroke-miterlimit="10" d="M17.4,15.2c0.5,0.3,0.7,1.2,0.7,1.8"/>
<circle fill="none" stroke="#FFFFFF" stroke-miterlimit="10" cx="16.1" cy="16.1" r="9.5"/>
<path fill="#FFFFFF" d="M12.3,24.2c0,0.9-0.7,1.7-1.7,1.7c-0.9,0-1.7-0.7-1.7-1.7c0-0.9,0.7-1.7,1.7-1.7
	C11.5,22.6,12.3,23.3,12.3,24.2"/>
<circle fill="none" stroke="#FFFFFF" stroke-miterlimit="10" cx="10.6" cy="24.2" r="1.7"/>
<path fill="#FFFFFF" d="M10.5,9.3c0,0.5-0.4,1-1,1c-0.5,0-1-0.4-1-1c0-0.5,0.4-1,1-1C10,8.3,10.5,8.7,10.5,9.3"/>
<circle fill="none" stroke="#FFFFFF" stroke-miterlimit="10" cx="9.5" cy="9.3" r="1"/>
<path fill="#FFFFFF" d="M27.4,13.2c0,0.9-0.7,1.7-1.6,1.7c-0.9,0-1.7-0.7-1.7-1.6c0-0.9,0.7-1.7,1.6-1.7
	C26.7,11.6,27.4,12.3,27.4,13.2"/>
<circle fill="none" stroke="#FFFFFF" stroke-miterlimit="10" cx="25.8" cy="13.3" r="1.7"/>
</svg>
